HIERARCHY
ROOT Hips
{
    OFFSET   0.000000   0.000000   0.000000
    CHANNELS 6 Xposition Yposition Zposition Zrotation Xrotation Yrotation
    JOINT Chest
    {
        OFFSET   0.000000   8.007230   0.000000
        CHANNELS 3 Zrotation Xrotation Yrotation
        JOINT Chest2
        {
            OFFSET   0.000000  22.077100   0.000000
            CHANNELS 3 Zrotation Xrotation Yrotation
            JOINT Neck
            {
                OFFSET   0.000000  23.254800   0.000000
                CHANNELS 3 Zrotation Xrotation Yrotation
                JOINT Head
                {
                    OFFSET   0.000010  14.370000   1.956600
                    CHANNELS 3 Zrotation Xrotation Yrotation
                    End Site
                    {
                        OFFSET   0.000000  19.566000   0.000000
                    }
                }
            }
            JOINT LeftCollar
            {
                OFFSET   3.911900  19.017000  -0.467062
                CHANNELS 3 Zrotation Xrotation Yrotation
                JOINT LeftShoulder
                {
                    OFFSET  10.383700   0.000000   0.000000
                    CHANNELS 3 Zrotation Xrotation Yrotation
                    JOINT LeftElbow
                    {
                        OFFSET  26.662100   0.001193   0.000835
                        CHANNELS 3 Zrotation Xrotation Yrotation
                        JOINT LeftWrist
                        {
                            OFFSET  28.869000  -0.000058  -0.000075
                            CHANNELS 3 Zrotation Xrotation Yrotation
                            JOINT LeftFinger0
                            {
                                OFFSET   2.044660  -2.323460   3.252850
                                CHANNELS 3 Zrotation Xrotation Yrotation
                                JOINT LeftFinger01
                                {
                                    OFFSET   3.088130   0.000000   0.000000
                                    CHANNELS 3 Zrotation Xrotation Yrotation
                                    JOINT LeftFinger02
                                    {
                                        OFFSET   2.639450   0.000000   0.000000
                                        CHANNELS 3 Zrotation Xrotation Yrotation
                                        End Site
                                        {
                                            OFFSET   2.582190   0.000000   0.000000
                                        }
                                    }
                                }
                            }
                            JOINT LeftFinger1
                            {
                                OFFSET   8.364480   0.000000   3.252850
                                CHANNELS 3 Zrotation Xrotation Yrotation
                                JOINT LeftFinger11
                                {
                                    OFFSET   4.646920   0.000000   0.000000
                                    CHANNELS 3 Zrotation Xrotation Yrotation
                                    JOINT LeftFinger12
                                    {
                                        OFFSET   2.323460   0.000000   0.000000
                                        CHANNELS 3 Zrotation Xrotation Yrotation
                                        End Site
                                        {
                                            OFFSET   2.273050   0.000000   0.000000
                                        }
                                    }
                                }
                            }
                            JOINT LeftFinger2
                            {
                                OFFSET   8.364490   0.000016   1.078090
                                CHANNELS 3 Zrotation Xrotation Yrotation
                                JOINT LeftFinger21
                                {
                                    OFFSET   5.111620   0.000000   0.000000
                                    CHANNELS 3 Zrotation Xrotation Yrotation
                                    JOINT LeftFinger22
                                    {
                                        OFFSET   2.788150   0.000012   0.000000
                                        CHANNELS 3 Zrotation Xrotation Yrotation
                                        End Site
                                        {
                                            OFFSET   2.727660   0.000000   0.000000
                                        }
                                    }
                                }
                            }
                            JOINT LeftFinger3
                            {
                                OFFSET   7.899780   0.000014  -1.078090
                                CHANNELS 3 Zrotation Xrotation Yrotation
                                JOINT LeftFinger31
                                {
                                    OFFSET   4.646930   0.000000   0.000000
                                    CHANNELS 3 Zrotation Xrotation Yrotation
                                    JOINT LeftFinger32
                                    {
                                        OFFSET   2.323470   0.000000   0.000000
                                        CHANNELS 3 Zrotation Xrotation Yrotation
                                        End Site
                                        {
                                            OFFSET   2.273050   0.000000   0.000000
                                        }
                                    }
                                }
                            }
                            JOINT LeftFinger4
                            {
                                OFFSET   7.435090   0.000000  -3.252850
                                CHANNELS 3 Zrotation Xrotation Yrotation
                                JOINT LeftFinger41
                                {
                                    OFFSET   3.717550   0.000000   0.000000
                                    CHANNELS 3 Zrotation Xrotation Yrotation
                                    JOINT LeftFinger42
                                    {
                                        OFFSET   1.858770   0.000000   0.000000
                                        CHANNELS 3 Zrotation Xrotation Yrotation
                                        End Site
                                        {
                                            OFFSET   1.818440   0.000000   0.000000
                                        }
                                    }
                                }
                            }
                        }
                    }
                }
            }
            JOINT RightCollar
            {
                OFFSET  -3.911900  19.017000  -0.467063
                CHANNELS 3 Zrotation Xrotation Yrotation
                JOINT RightShoulder
                {
                    OFFSET -10.383700   0.000023   0.000000
                    CHANNELS 3 Zrotation Xrotation Yrotation
                    JOINT RightElbow
                    {
                        OFFSET -26.662100   0.001246   0.001011
                        CHANNELS 3 Zrotation Xrotation Yrotation
                        JOINT RightWrist
                        {
                            OFFSET -28.869000  -0.000026  -0.000078
                            CHANNELS 3 Zrotation Xrotation Yrotation
                            JOINT RightFinger0
                            {
                                OFFSET  -2.044660  -2.323490   3.252850
                                CHANNELS 3 Zrotation Xrotation Yrotation
                                JOINT RightFinger01
                                {
                                    OFFSET  -3.088130   0.000000   0.000000
                                    CHANNELS 3 Zrotation Xrotation Yrotation
                                    JOINT RightFinger02
                                    {
                                        OFFSET  -2.639460   0.000000   0.000000
                                        CHANNELS 3 Zrotation Xrotation Yrotation
                                        End Site
                                        {
                                            OFFSET  -2.582190   0.000000   0.000000
                                        }
                                    }
                                }
                            }
                            JOINT RightFinger1
                            {
                                OFFSET  -8.364480   0.000000   3.252850
                                CHANNELS 3 Zrotation Xrotation Yrotation
                                JOINT RightFinger11
                                {
                                    OFFSET  -4.646920   0.000000   0.000000
                                    CHANNELS 3 Zrotation Xrotation Yrotation
                                    JOINT RightFinger12
                                    {
                                        OFFSET  -2.323470   0.000000   0.000000
                                        CHANNELS 3 Zrotation Xrotation Yrotation
                                        End Site
                                        {
                                            OFFSET  -2.273050   0.000000   0.000000
                                        }
                                    }
                                }
                            }
                            JOINT RightFinger2
                            {
                                OFFSET  -8.364480   0.000000   1.078090
                                CHANNELS 3 Zrotation Xrotation Yrotation
                                JOINT RightFinger21
                                {
                                    OFFSET  -5.111620   0.000000   0.000000
                                    CHANNELS 3 Zrotation Xrotation Yrotation
                                    JOINT RightFinger22
                                    {
                                        OFFSET  -2.788160   0.000000   0.000000
                                        CHANNELS 3 Zrotation Xrotation Yrotation
                                        End Site
                                        {
                                            OFFSET  -2.727660   0.000000   0.000000
                                        }
                                    }
                                }
                            }
                            JOINT RightFinger3
                            {
                                OFFSET  -7.899780   0.000000  -1.078090
                                CHANNELS 3 Zrotation Xrotation Yrotation
                                JOINT RightFinger31
                                {
                                    OFFSET  -4.646930   0.000000   0.000000
                                    CHANNELS 3 Zrotation Xrotation Yrotation
                                    JOINT RightFinger32
                                    {
                                        OFFSET  -2.323470   0.000000   0.000000
                                        CHANNELS 3 Zrotation Xrotation Yrotation
                                        End Site
                                        {
                                            OFFSET  -2.273050   0.000000   0.000000
                                        }
                                    }
                                }
                            }
                            JOINT RightFinger4
                            {
                                OFFSET  -7.435090   0.000000  -3.252850
                                CHANNELS 3 Zrotation Xrotation Yrotation
                                JOINT RightFinger41
                                {
                                    OFFSET  -3.717550   0.000000   0.000000
                                    CHANNELS 3 Zrotation Xrotation Yrotation
                                    JOINT RightFinger42
                                    {
                                        OFFSET  -1.858760   0.000000   0.000000
                                        CHANNELS 3 Zrotation Xrotation Yrotation
                                        End Site
                                        {
                                            OFFSET  -1.818440   0.000000   0.000000
                                        }
                                    }
                                }
                            }
                        }
                    }
                }
            }
        }
    }
    JOINT LeftHip
    {
        OFFSET   9.783010   0.000000   0.000000
        CHANNELS 3 Zrotation Xrotation Yrotation
        JOINT LeftKnee
        {
            OFFSET   0.000073 -41.789100   0.001749
            CHANNELS 3 Zrotation Xrotation Yrotation
            JOINT LeftAnkle
            {
                OFFSET   0.000111 -41.133200  -0.000179
                CHANNELS 3 Zrotation Xrotation Yrotation
                JOINT LeftToe
                {
                    OFFSET   0.000000  -6.358960  14.674500
                    CHANNELS 3 Zrotation Xrotation Yrotation
                    End Site
                    {
                        OFFSET   0.000000   0.000000   3.913200
                    }
                }
            }
        }
    }
    JOINT RightHip
    {
        OFFSET  -9.783010   0.000000   0.000000
        CHANNELS 3 Zrotation Xrotation Yrotation
        JOINT RightKnee
        {
            OFFSET   0.000424 -41.789200   0.005205
            CHANNELS 3 Zrotation Xrotation Yrotation
            JOINT RightAnkle
            {
                OFFSET   0.000000 -41.133200  -0.000155
                CHANNELS 3 Zrotation Xrotation Yrotation
                JOINT RightToe
                {
                    OFFSET   0.000000  -6.358960  14.674500
                    CHANNELS 3 Zrotation Xrotation Yrotation
                    End Site
                    {
                        OFFSET   0.000000   0.000000   3.913200
                    }
                }
            }
        }
    }
}
MOTION
Frames: 5
Frame Time:   0.016667
  2.189470  89.076700   0.842899   5.372320 -23.300900  20.758200  -4.131550  13.172300   6.368560 -10.193700  25.742200  14.288400   4.569070   2.610260  -0.208376   7.547740   5.192940 -15.451200  -4.635590 -10.151100  -2.782630 -62.736700  16.926500 -10.081100   3.131170   3.286580 -22.268200  13.090900  -3.801500  -1.302590  40.934200  34.364400 -70.881300 -27.435800   0.000403   0.000259  -8.717930   0.013181   0.005075 -27.907000   5.027460  -9.386950 -23.168100  -0.002137   0.000878 -16.217700  -0.011087   0.019080 -27.662800  -1.568310   2.988790 -30.248300   0.002523   0.002591 -20.145400   0.001525   0.000621 -28.300300  -1.601420   2.971060 -34.578300  -0.005284   0.004351 -23.029200  -0.004786   0.003955 -30.471700  -1.713430   2.908240 -45.772200   0.000351   0.001241 -30.484300   0.000693  -0.000732   0.911600 -11.766800   7.243890  20.623500 -30.489700  66.590300 -25.330100 -10.724300  12.586900  40.302100 -40.151300  41.203900 -20.652300  50.614100  62.752500  83.451800  -0.001657  -0.000332  48.918900  -0.000482   0.006434  88.996000   4.999510   0.089351  85.763100  -0.000169   0.003834  64.322300   0.002522  -0.001695  89.000000  -0.004001  -0.002422 110.000000  -0.002316  -0.005165  80.001500  -0.001689   0.000553  88.996200  -4.997490  -0.087484 110.000000  -0.001784  -0.004294  79.999900  -0.001266  -0.000850  88.984500  -9.998980  -0.177225 110.000000  -0.004785  -0.005722  79.999900   0.001611   0.003107   0.861970  19.893200   3.438170   4.376130   6.336540  -5.344080  -3.153170  -3.973490  -6.378810   0.000000   0.000000  -0.000000   1.805450  20.581200  -4.775780   1.781320  12.984900 -33.115500   3.667950  -8.321220   2.714220  -0.000000   0.000000   0.000000
  2.395380  89.075500   0.760437   5.529090 -23.258000  21.061300  -4.096900  13.167400   6.410090 -10.122300  25.728100  14.367100   4.507740   2.502770  -0.197075   7.445240   4.981240 -15.414500  -4.778310 -10.132000  -2.821820 -62.852700  16.357600  -9.835640   2.997910   3.296070 -21.976700  13.199300  -3.466830  -1.144350  40.722800  34.186500 -70.965400 -27.436500   0.000398   0.000220  -8.718270   0.032358   0.005099 -28.085100   5.366450  -9.943420 -23.363800  -0.002142   0.000871 -16.354700  -0.021939   0.039743 -27.725500  -1.525710   2.900540 -30.580600   0.002522   0.002591 -20.366700   0.001525   0.000621 -28.336100  -1.556800   2.883770 -34.875100  -0.005281   0.004351 -23.226800  -0.004789   0.003955 -30.568100  -1.667640   2.821320 -45.913200   0.000352   0.001239 -30.578200   0.000695  -0.000732   0.929635 -11.763700   7.327890  20.175200 -30.644500  66.154000 -25.485600 -10.627300  12.808900  40.206200 -40.009400  41.041600 -20.591900  50.546200  62.683900  83.425900  -0.001970  -0.000437  48.901600  -0.000593   0.006889  88.996000   4.999560   0.089392  85.717800  -0.000115   0.003588  64.288400   0.002387  -0.001993  89.000000  -0.004038  -0.002370 110.000000  -0.002541  -0.004970  80.001500  -0.001670   0.000645  88.996200  -4.997370  -0.087486 110.000000  -0.001994  -0.004070  79.999900  -0.001278  -0.000658  88.984500  -9.998910  -0.177248 110.000000  -0.004758  -0.005913  80.000000   0.001608   0.003082   0.635923  19.838600   3.318920   4.392850   6.454330  -5.585870  -3.047030  -3.989860  -6.207400   0.000000   0.000000  -0.000000   1.481060  20.456600  -5.145680   1.900520  13.516700 -33.004500   3.794070  -8.533000   2.705330  -0.000000   0.000000   0.000000
  2.595950  89.076600   0.693471   5.700810 -23.291700  21.363100  -4.046180  13.203000   6.379730 -10.017100  25.807100  14.300800   4.420280   2.347300  -0.181423   7.293610   4.674860 -15.177700  -4.860840 -10.157300  -2.752610 -63.041600  15.873800  -9.478280   2.852510   3.204250 -21.760000  13.136400  -3.324800  -1.093540  40.638200  34.233700 -71.160700 -27.423500   0.000397   0.000246  -8.711750   0.046736  -0.017234 -28.115100   5.237690  -9.689340 -23.366000  -0.002138   0.000872 -16.356300   0.019943  -0.055279 -27.772900  -1.489440   2.826680 -30.833800   0.002522   0.002591 -20.535300   0.001525   0.000619 -28.333400  -1.517570   2.811570 -34.828400  -0.005287   0.004356 -23.195700  -0.004783   0.003955 -30.647200  -1.629940   2.748050 -46.030000   0.000350   0.001241 -30.656000   0.000692  -0.000730   0.910656 -11.786400   7.485520  19.990100 -30.752700  65.973800 -25.659200 -10.436300  13.058500  40.208800 -39.926200  40.995800 -20.545500  50.491400  62.631100  83.413900  -0.002288  -0.000528  48.893600  -0.000709   0.007327  88.996000   4.999600   0.089430  85.685700  -0.000068   0.003332  64.264300   0.002257  -0.002327  89.000000  -0.004073  -0.002314 110.000000  -0.002769  -0.004762  80.001400  -0.001646   0.000740  88.996200  -4.997260  -0.087491 110.000000  -0.002190  -0.003833  79.999900  -0.001282  -0.000457  88.984500  -9.998850  -0.177268 110.000000  -0.004729  -0.006102  80.000000   0.001611   0.003051   0.410663  19.930700   3.170610   4.432340   6.457670  -5.783600  -2.963870  -4.036310  -6.041060  -0.000000   0.000000   0.000000   1.198470  20.463000  -5.317380   2.053410  13.924100 -33.220300   3.929120  -8.696440   2.856630   0.000000   0.000000   0.000000
  2.787690  89.080900   0.632388   5.842240 -23.333300  21.605100  -3.989800  13.242900   6.320170  -9.894220  25.901500  14.168700   4.328640   2.168580  -0.164123   7.139510   4.322710 -14.810400  -4.889950 -10.209100  -2.635440 -63.229800  15.503600  -9.060340   2.683200   3.008860 -21.578500  12.979900  -3.193320  -1.086160  40.746300  34.402300 -71.516200 -27.389900   0.000397   0.000271  -8.694900   0.054403  -0.052442 -28.142400   5.066970  -9.374780 -23.366300  -0.002134   0.000875 -16.356300   0.073374  -0.150793 -27.800300  -1.448500   2.745440 -30.984200   0.002522   0.002592 -20.635500   0.001525   0.000617 -28.323900  -1.473630   2.732050 -34.728800  -0.005292   0.004361 -23.129300  -0.004777   0.003955 -30.693300  -1.585800   2.668600 -46.095300   0.000347   0.001242 -30.699500   0.000688  -0.000727   0.884531 -11.808600   7.655570  19.859000 -30.764000  65.894100 -25.874500 -10.310600  13.285800  40.235100 -39.854800  40.971700 -20.520400  50.461200  62.602700  83.397100  -0.002603  -0.000610  48.882400  -0.000833   0.007757  88.996000   4.999630   0.089466  85.633800   0.000000   0.003071  64.225300   0.002122  -0.002664  89.000000  -0.004110  -0.002256 110.000000  -0.002993  -0.004545  80.001300  -0.001619   0.000836  88.996200  -4.997140  -0.087495 110.000000  -0.002381  -0.003585  80.000000  -0.001282  -0.000257  88.984500  -9.998790  -0.177287 110.000000  -0.004698  -0.006291  79.999900   0.001614   0.003020   0.202625  20.122100   3.037670   4.465310   6.456810  -5.927530  -2.881940  -4.086720  -5.890640  -0.000000   0.000000   0.000000   0.961085  20.472300  -5.389690   2.172490  14.244300 -33.424400   4.054270  -8.812070   3.007700   0.000000   0.000000   0.000000
  2.973350  89.090700   0.569188   5.921040 -23.306100  21.741800  -3.940110  13.248800   6.251440  -9.775240  25.926900  14.015400   4.259300   1.994480  -0.148577   7.024640   3.977910 -14.464100  -4.873900 -10.273500  -2.531060 -63.404200  15.293700  -8.596300   2.503400   2.769820 -21.418200  12.739900  -2.920240  -1.163170  40.925600  34.706700 -71.957400 -27.338200   0.000397   0.000246  -8.669040   0.048177  -0.081606 -28.127900   5.018340  -9.304050 -23.353600  -0.002135   0.000882 -16.347400   0.086846  -0.151368 -27.804800  -1.398180   2.648960 -31.002800   0.002517   0.002591 -20.647800   0.001526   0.000620 -28.312600  -1.421420   2.636630 -34.607400  -0.005285   0.004357 -23.048500  -0.004780   0.003954 -30.619600  -1.526760   2.577350 -45.980300   0.000346   0.001242 -30.622900   0.000691  -0.000730   0.897415 -11.803700   7.775600  19.650400 -30.552800  65.813500 -26.196600 -10.308600  13.438900  40.245900 -39.741600  40.926900 -20.526300  50.573200  62.625600  83.355000  -0.002905  -0.000695  48.854400  -0.000965   0.008189  88.996000   4.999650   0.089503  85.511600   0.000125   0.002808  64.133600   0.001967  -0.002964  89.000000  -0.004151  -0.002195 110.000000  -0.003203  -0.004322  80.001200  -0.001593   0.000930  88.996200  -4.997030  -0.087490 110.000000  -0.002576  -0.003333  80.000000  -0.001269  -0.000067  88.984500  -9.998730  -0.177308 110.000000  -0.004659  -0.006480  79.999900   0.001612   0.002998   0.013981  20.431800   2.983380   4.445340   6.214250  -5.984960  -2.803640  -4.116610  -5.798300  -0.000000   0.000000  -0.000000   0.783519  20.455200  -5.430280   2.207670  14.469400 -33.419800   4.135320  -8.869960   2.973330  -0.000000   0.000000   0.000000
